REM MD5 3fdfe7fb34f23e306cf68b1fc3f32a1b
FILE "Official U.S. PlayStation Magazine Demo Disc 32 (USA).bin" BINARY
  TRACK 01 MODE2/2352
    INDEX 01 00:00:00
  TRACK 02 AUDIO
    INDEX 00 41:57:70
    INDEX 01 41:59:70
  TRACK 03 AUDIO
    INDEX 00 43:08:20
    INDEX 01 43:10:20
REM LEADOUT 43:16:16
